M48
; DRILL file KiCad 10.0.6 date 2026-09-24T17:51:25
; FORMAT={-:-/ absolute / metric / decimal}
; #@! TF.CreationDate,2026-09-24T17:51:25+10:00
; #@! TF.GenerationSoftware,Kicad,Pcbnew,10.0.6
; #@! TF.FileFunction,Plated,1,4,PTH
FMAT,2
METRIC
; #@! TA.AperFunction,Plated,PTH,ViaDrill
T1C0.300
; #@! TA.AperFunction,Plated,PTH,ComponentDrill
T2C0.300
; #@! TA.AperFunction,Plated,PTH,ViaDrill
T3C0.400
; #@! TA.AperFunction,Plated,PTH,ComponentDrill
T4C0.600
; #@! TA.AperFunction,Plated,PTH,ComponentDrill
T5C1.000
; #@! TA.AperFunction,Plated,PTH,ComponentDrill
T6C1.200
; #@! TA.AperFunction,Plated,PTH,ComponentDrill
T7C1.550
; #@! TA.AperFunction,Plated,PTH,ComponentDrill
T8C1.650
; #@! TA.AperFunction,Plated,PTH,ComponentDrill
T9C3.200
%
G90
G05
T1
X13.97Y-85.09
X14.224Y-20.574
X14.605Y-31.623
X14.732Y-42.037
X16.0Y-42.575
X16.0Y-68.556
X16.002Y-82.042
X16.02Y-26.0
X16.4Y-53.099
X16.637Y-31.75
X16.718Y-77.286
X16.891Y-72.644
X17.272Y-22.606
X17.424Y-66.548
X17.55Y-58.124
X17.958Y-62.103
X18.0Y-64.8
X18.331Y-56.43
X18.354Y-53.403
X18.491Y-63.398
X18.5Y-46.905
X18.5Y-72.886
X18.544Y-79.209
X18.669Y-60.909
X18.683Y-75.721
X18.923Y-24.003
X19.05Y-69.774
X19.05Y-71.882
X19.05Y-77.978
X19.304Y-13.462
X19.4Y-68.299
X19.558Y-31.496
X19.66Y-62.128
X19.732Y-60.249
X19.99Y-21.98
X20.06Y-74.849
X20.193Y-65.608
X20.2Y-71.6
X20.291Y-57.738
X20.574Y-53.086
X20.6Y-61.175
X20.63Y-73.268
X20.65Y-55.249
X20.8Y-63.8
X20.828Y-25.654
X20.828Y-82.042
X21.0Y-42.575
X21.0Y-67.6
X21.234Y-56.54
X21.301Y-57.898
X21.336Y-31.623
X21.336Y-85.852
X21.4Y-63.2
X21.844Y-82.804
X21.9Y-69.149
X22.05Y-58.799
X22.073Y-77.749
X22.075Y-47.35
X22.176Y-67.949
X22.2Y-75.6
X22.3Y-81.9
X22.555Y-70.536
X22.725Y-31.0
X22.725Y-32.6
X22.775Y-66.674
X22.987Y-41.275
X22.987Y-42.875
X22.987Y-44.577
X23.114Y-18.796
X23.317Y-79.096
X23.343Y-57.074
X23.4Y-59.0
X23.4Y-60.6
X23.6Y-63.6
X23.698Y-73.939
X23.876Y-45.466
X23.9Y-82.6
X24.042Y-52.463
X24.13Y-54.102
X24.25Y-61.299
X24.409Y-77.521
X24.725Y-82.5
X24.74Y-80.543
X24.825Y-33.575
X24.892Y-24.892
X24.892Y-26.162
X24.892Y-27.051
X24.9Y-58.549
X24.95Y-41.425
X25.0Y-51.5
X25.049Y-22.826
X25.121Y-86.099
X25.146Y-20.518
X25.146Y-21.463
X25.2Y-69.8
X25.2Y-72.0
X25.275Y-87.75
X25.4Y-56.134
X25.4Y-68.326
X25.5Y-47.5
X25.654Y-16.256
X25.654Y-57.912
X25.654Y-61.722
X26.0Y-33.915
X26.0Y-65.786
X26.01Y-77.724
X26.2Y-70.8
X26.35Y-60.799
X26.4Y-72.2
X26.55Y-89.825
X26.569Y-21.463
X26.6Y-65.2
X26.61Y-20.518
X26.67Y-22.86
X26.67Y-38.1
X26.9Y-83.049
X26.924Y-24.638
X26.924Y-68.58
X26.95Y-61.549
X27.0Y-49.0
X27.0Y-55.25
X27.0Y-73.3
X27.15Y-58.549
X27.15Y-64.299
X27.178Y-26.826
X27.178Y-28.829
X27.178Y-67.056
X27.178Y-75.692
X27.3Y-71.6
X27.4Y-65.786
X27.4Y-70.4
X27.559Y-85.801
X27.645Y-41.778
X27.813Y-82.753
X27.909Y-64.552
X28.0Y-46.5
X28.0Y-54.4
X28.27Y-77.14
X28.3Y-52.6
X28.353Y-76.283
X28.4Y-55.549
X28.448Y-18.796
X28.448Y-33.274
X28.5Y-60.081
X28.526Y-72.274
X28.6Y-61.8
X28.6Y-70.525
X28.65Y-80.423
X28.65Y-87.799
X28.65Y-89.3
X28.7Y-73.2
X28.702Y-45.212
X28.702Y-68.8
X28.956Y-37.338
X29.134Y-29.185
X29.15Y-71.201
X29.229Y-76.181
X29.464Y-56.149
X29.55Y-73.2
X29.643Y-72.405
X29.718Y-26.67
X29.718Y-40.64
X29.825Y-70.4
X29.905Y-75.752
X29.914Y-58.011
X30.134Y-71.156
X30.201Y-85.801
X30.321Y-82.013
X30.4Y-83.049
X30.48Y-42.926
X30.725Y-89.75
X30.734Y-45.974
X30.75Y-65.024
X30.8Y-71.6
X30.8Y-77.6
X30.912Y-79.4
X31.0Y-16.594
X31.0Y-33.915
X31.039Y-31.801
X31.242Y-30.48
X31.4Y-56.8
X31.471Y-40.132
X31.496Y-37.338
X31.496Y-52.07
X31.496Y-64.262
X31.55Y-72.775
X31.625Y-87.725
X31.7Y-54.0
X31.8Y-77.751
X31.852Y-62.103
X31.902Y-76.124
X32.194Y-45.958
X32.273Y-66.576
X32.334Y-80.772
X32.36Y-23.241
X32.38Y-75.479
X32.5Y-73.25
X32.512Y-35.56
X32.537Y-24.486
X32.584Y-83.5
X32.6Y-76.6
X32.8Y-49.7
X32.861Y-69.976
X32.976Y-62.186
X33.02Y-22.86
X33.02Y-28.702
X33.2Y-65.8
X33.224Y-71.176
X33.3Y-72.166
X33.4Y-67.4
X33.5Y-55.565
X33.576Y-61.576
X33.576Y-66.576
X33.6Y-60.4
X33.782Y-26.67
X33.782Y-29.464
X33.782Y-82.017
X33.8Y-75.2
X33.854Y-74.346
X33.888Y-78.888
X33.908Y-65.428
X34.027Y-37.31
X34.417Y-25.273
X34.544Y-48.514
X34.544Y-77.978
X34.798Y-40.386
X34.85Y-19.575
X34.85Y-27.6
X34.95Y-58.9
X34.99Y-89.04
X35.11Y-28.55
X35.179Y-86.233
X35.204Y-33.35
X35.25Y-75.248
X35.25Y-76.732
X35.338Y-29.317
X35.458Y-83.922
X35.552Y-87.132
X35.56Y-51.054
X35.6Y-62.8
X35.61Y-47.05
X35.787Y-76.132
X36.0Y-16.594
X36.017Y-85.598
X36.068Y-48.26
X36.119Y-25.146
X36.275Y-20.05
X36.297Y-21.514
X36.3Y-57.35
X36.385Y-75.6
X36.4Y-61.4
X36.576Y-39.624
X36.887Y-72.595
X36.975Y-71.8
X37.0Y-81.2
X37.084Y-29.21
X37.338Y-48.514
X37.338Y-78.74
X37.465Y-89.789
X37.592Y-33.376
X37.592Y-37.338
X37.592Y-52.07
X37.6Y-63.2
X37.6Y-64.8
X37.61Y-71.072
X37.668Y-62.103
X37.9Y-55.65
X38.045Y-70.294
X38.12Y-66.275
X38.227Y-29.185
X38.227Y-88.748
X38.35Y-60.95
X38.354Y-40.64
X38.473Y-46.025
X38.5Y-79.05
X38.608Y-48.514
X38.626Y-26.504
X38.76Y-82.22
X38.871Y-68.21
X39.0Y-81.1
X39.116Y-45.466
X39.2Y-59.95
X39.37Y-20.168
X39.5Y-54.0
X39.8Y-66.0
X39.878Y-76.2
X40.107Y-86.411
X40.4Y-84.6
X40.5Y-62.25
X40.513Y-64.237
X40.55Y-58.6
X40.6Y-80.4
X40.912Y-68.344
X40.925Y-43.25
X40.976Y-69.924
X41.0Y-16.594
X41.0Y-25.254
X41.148Y-44.196
X41.2Y-52.3
X41.224Y-81.966
X41.35Y-85.0
X41.402Y-40.894
X41.402Y-49.183
X41.453Y-79.35
X41.594Y-76.956
X41.687Y-65.817
X41.758Y-87.325
X41.783Y-89.789
X41.8Y-74.4
X41.95Y-57.0
X42.2Y-76.2
X42.224Y-78.024
X42.291Y-44.196
X42.3Y-60.9
X42.52Y-85.014
X42.6Y-70.524
X42.75Y-83.099
X42.8Y-80.0
X42.85Y-75.6
X42.875Y-68.402
X43.0Y-72.2
X43.2Y-42.846
X43.2Y-56.05
X43.256Y-74.4
X43.459Y-77.318
X43.5Y-20.924
X43.5Y-29.585
X43.5Y-55.565
X43.6Y-86.2
X43.637Y-78.842
X43.7Y-59.55
X43.8Y-39.8
X43.8Y-69.924
X43.8Y-84.95
X43.95Y-73.15
X44.0Y-38.2
X44.214Y-65.042
X44.272Y-71.577
X44.323Y-67.437
X44.45Y-89.662
X44.55Y-54.55
X44.577Y-87.376
X44.6Y-51.2
X44.6Y-53.2
X44.958Y-56.388
X44.983Y-39.776
X45.025Y-83.8
X45.034Y-75.997
X45.212Y-81.026
X45.237Y-29.489
X45.35Y-57.95
X45.4Y-68.6
X45.415Y-88.57
X45.517Y-62.001
X45.6Y-50.2
X45.695Y-74.016
X45.72Y-35.052
X45.771Y-65.735
X45.8Y-40.4
X45.822Y-28.042
X45.898Y-26.543
X45.955Y-32.944
X46.0Y-16.594
X46.0Y-69.924
X46.0Y-75.2
X46.1Y-47.6
X46.1Y-80.0
X46.228Y-44.348
X46.275Y-39.6
X46.3Y-45.7
X46.3Y-82.4
X46.482Y-81.28
X46.9Y-21.0
X46.914Y-23.52
X46.939Y-25.298
X47.193Y-51.105
X47.295Y-86.436
X47.4Y-57.0
X47.44Y-71.6
X47.455Y-61.933
X47.675Y-40.55
X47.676Y-74.092
X47.727Y-26.772
X47.752Y-33.452
X47.752Y-47.752
X47.777Y-30.429
X47.854Y-28.423
X47.879Y-84.43
X47.904Y-34.823
X47.93Y-69.596
X47.955Y-67.666
X48.006Y-66.675
X48.05Y-63.3
X48.184Y-76.987
X48.2Y-32.4
X48.288Y-23.622
X48.5Y-29.585
X48.641Y-39.522
X48.8Y-55.6
X48.895Y-59.182
X48.93Y-84.093
X49.022Y-52.476
X49.25Y-61.9
X49.276Y-81.407
X49.36Y-74.88
X49.4Y-54.97
X49.675Y-90.7
X49.68Y-71.69
X49.733Y-47.041
X49.784Y-43.434
X49.784Y-66.675
X49.784Y-75.946
X49.8Y-60.0
X49.962Y-54.28
X50.013Y-87.655
X50.038Y-84.303
X50.09Y-78.81
X50.1Y-38.075
X50.1Y-39.675
X50.1Y-41.275
X50.292Y-69.596
X50.4Y-59.182
X50.89Y-74.03
X50.9Y-50.6
X50.91Y-86.249
X51.0Y-16.594
X51.0Y-25.254
X51.0Y-33.915
X51.0Y-42.575
X51.0Y-77.216
X51.19Y-81.51
X51.308Y-68.072
X51.308Y-69.342
X51.308Y-78.74
X51.308Y-84.328
X51.4Y-54.0
X51.562Y-85.344
X51.562Y-88.9
X51.816Y-44.704
X51.9Y-52.35
X51.943Y-60.452
X52.271Y-81.534
X52.4Y-63.799
X52.531Y-71.95
X52.578Y-75.786
X52.832Y-78.74
X52.959Y-66.675
X53.086Y-43.434
X53.15Y-48.25
X53.248Y-81.534
X53.34Y-56.642
X53.4Y-59.309
X53.4Y-63.799
X53.5Y-20.924
X53.5Y-29.585
X53.54Y-64.749
X53.594Y-42.418
X53.721Y-54.991
X53.823Y-50.444
X53.848Y-75.438
X54.102Y-78.74
X54.356Y-81.788
X54.356Y-84.074
X54.356Y-85.344
X54.356Y-87.63
X54.356Y-89.662
X54.4Y-63.799
X54.61Y-71.374
X54.864Y-75.438
X55.25Y-53.55
X55.626Y-21.336
X55.626Y-32.004
X55.626Y-48.514
X55.65Y-69.799
X55.788Y-68.622
X55.88Y-44.196
X56.0Y-16.594
X56.0Y-25.254
X56.0Y-42.575
X56.007Y-35.433
X56.04Y-72.55
X56.134Y-89.154
X56.239Y-74.893
X56.337Y-33.655
X56.347Y-30.067
X56.388Y-78.994
X56.388Y-80.518
X56.39Y-55.699
X56.4Y-68.4
X56.49Y-57.749
X56.566Y-47.371
X56.6Y-52.05
X56.642Y-30.81
X56.642Y-84.074
X56.642Y-85.344
X56.839Y-75.692
X56.896Y-87.63
X56.896Y-89.916
X57.15Y-40.05
X57.34Y-56.749
X57.404Y-53.975
X57.44Y-58.799
X57.639Y-75.692
X57.692Y-48.802
X58.039Y-28.931
X58.064Y-38.583
X58.09Y-26.924
X58.102Y-68.306
X58.293Y-53.34
X58.34Y-55.749
X58.369Y-35.001
X58.375Y-33.325
X58.44Y-57.799
X58.547Y-83.82
X58.6Y-45.8
X58.625Y-39.875
X58.674Y-44.196
X58.674Y-75.692
X58.928Y-78.486
X58.953Y-46.558
X59.182Y-74.422
X59.182Y-82.042
X59.284Y-21.082
X59.334Y-23.165
X59.334Y-25.298
X59.436Y-87.376
X59.65Y-57.799
X59.65Y-68.95
X59.69Y-89.408
X59.944Y-85.09
X60.198Y-31.75
X60.198Y-75.622
X60.25Y-33.475
X60.25Y-40.55
X60.452Y-26.67
X60.452Y-74.676
X60.528Y-35.154
X60.617Y-48.933
X60.625Y-28.55
X60.7Y-44.196
X60.706Y-30.378
X60.96Y-58.928
X61.0Y-16.594
X61.239Y-40.132
X61.65Y-57.799
X61.65Y-59.799
X61.65Y-61.799
X61.65Y-63.799
X61.65Y-65.799
X61.722Y-75.896
X61.84Y-55.599
X61.976Y-26.797
X61.976Y-33.274
X61.976Y-82.652
X61.976Y-85.852
X61.976Y-87.376
X62.103Y-44.45
X62.131Y-48.333
X62.23Y-89.408
X62.44Y-56.399
X62.484Y-43.434
X62.586Y-78.308
X62.992Y-46.736
X63.075Y-39.9
X63.075Y-41.5
X63.119Y-58.674
X63.15Y-60.049
X63.15Y-62.049
X63.15Y-64.049
X63.15Y-66.049
X63.288Y-23.622
X63.288Y-83.622
X63.5Y-20.924
X63.5Y-29.585
X63.5Y-72.886
X63.74Y-56.699
X63.94Y-80.47
X64.04Y-55.599
X64.15Y-61.049
X64.15Y-63.049
X64.15Y-65.049
X64.262Y-36.576
X64.262Y-39.37
X64.262Y-58.166
X64.262Y-86.614
X64.516Y-46.228
X64.8Y-42.35
X65.15Y-62.049
X65.15Y-64.049
X65.15Y-66.049
X65.278Y-57.404
X65.278Y-58.928
X65.405Y-45.085
X65.44Y-56.499
X65.532Y-51.235
X66.0Y-77.216
X66.0Y-85.876
X66.04Y-29.972
X66.15Y-61.049
X66.15Y-63.049
X66.15Y-65.049
X66.24Y-55.599
X66.294Y-34.798
X66.297Y-52.872
X66.623Y-73.4
X67.056Y-41.402
X67.15Y-62.049
X67.15Y-64.049
X67.15Y-66.049
X67.31Y-29.21
X67.44Y-56.199
X67.564Y-18.796
X67.818Y-27.178
X68.072Y-40.132
X68.072Y-42.672
X68.072Y-90.424
X68.15Y-61.049
X68.15Y-63.049
X68.15Y-65.049
X68.326Y-87.884
X68.453Y-31.658
X68.834Y-47.244
X68.834Y-50.292
X69.088Y-49.022
X69.15Y-62.049
X69.15Y-64.049
X69.15Y-66.049
X69.215Y-20.447
X69.34Y-55.199
X69.342Y-22.098
X69.342Y-33.147
X69.596Y-45.466
X69.596Y-49.692
X69.85Y-76.962
X70.104Y-16.256
X70.104Y-81.788
X70.15Y-61.049
X70.15Y-63.049
X70.15Y-65.049
X70.15Y-67.049
X70.798Y-52.353
X70.84Y-56.099
X70.866Y-20.447
X70.866Y-22.352
X70.866Y-48.006
X71.026Y-34.512
X71.026Y-36.512
X71.12Y-25.654
X71.12Y-31.658
X71.15Y-62.049
X71.15Y-64.049
X71.15Y-66.049
X71.374Y-27.432
X71.628Y-46.355
X71.9Y-57.15
X72.026Y-33.512
X72.026Y-35.512
X72.026Y-37.512
X72.15Y-59.049
X72.15Y-61.049
X72.15Y-63.049
X72.15Y-65.049
X72.15Y-67.049
X72.15Y-69.049
X72.324Y-53.643
X72.324Y-55.142
X72.39Y-90.17
X72.534Y-56.621
X72.644Y-18.796
X72.832Y-54.38
X72.898Y-32.766
X72.898Y-76.708
X73.026Y-34.512
X73.026Y-36.512
X73.15Y-58.049
X73.15Y-60.049
X73.15Y-62.049
X73.15Y-64.049
X73.15Y-66.049
X73.15Y-68.049
X73.15Y-70.049
X73.5Y-81.546
X73.594Y-52.602
X74.026Y-33.512
X74.026Y-35.512
X74.026Y-37.512
X74.15Y-59.049
X74.15Y-61.049
X74.15Y-63.049
X74.15Y-65.049
X74.15Y-67.049
X74.15Y-69.049
X74.168Y-51.816
X74.676Y-48.387
X74.847Y-30.066
X74.918Y-56.389
X74.93Y-27.686
X74.93Y-40.64
X74.93Y-42.418
X75.026Y-32.512
X75.026Y-34.512
X75.026Y-36.512
X75.057Y-44.45
X75.184Y-18.542
X75.4Y-74.4
X75.438Y-55.626
X75.46Y-72.71
X75.534Y-52.094
X75.703Y-80.235
X75.88Y-49.292
X75.88Y-53.872
X76.0Y-77.216
X76.026Y-33.512
X76.026Y-35.512
X76.026Y-37.512
X76.5Y-86.614
X77.026Y-32.512
X77.026Y-34.512
X77.026Y-36.512
X77.026Y-38.512
X77.125Y-72.725
X77.549Y-69.684
X77.8Y-74.0
X77.8Y-84.43
X77.978Y-82.55
X78.026Y-33.512
X78.026Y-35.512
X78.026Y-37.512
X78.058Y-13.86
X78.058Y-15.86
X78.058Y-17.86
X78.058Y-19.86
X78.058Y-21.86
X78.058Y-23.86
X78.105Y-48.768
X78.275Y-87.75
X78.4Y-90.625
X78.595Y-51.772
X78.595Y-52.722
X78.791Y-78.816
X78.979Y-55.523
X79.026Y-32.512
X79.026Y-34.512
X79.026Y-36.512
X79.026Y-38.512
X79.195Y-54.083
X79.25Y-73.88
X79.484Y-50.421
X80.026Y-33.512
X80.026Y-35.512
X80.026Y-37.512
X80.058Y-15.86
X80.058Y-17.86
X80.058Y-19.86
X80.058Y-21.86
X80.058Y-23.86
X80.346Y-69.744
X80.35Y-51.637
X80.427Y-55.421
X80.445Y-62.503
X80.477Y-53.161
X80.747Y-72.644
X80.782Y-49.96
X80.934Y-56.079
X81.0Y-77.216
X81.0Y-85.876
X81.026Y-32.512
X81.026Y-34.512
X81.026Y-36.512
X81.026Y-38.512
X81.058Y-14.86
X81.058Y-20.86
X81.2Y-74.0
X81.265Y-54.024
X81.722Y-51.129
X81.934Y-49.072
X82.042Y-27.432
X82.058Y-15.86
X82.058Y-17.86
X82.058Y-23.86
X82.78Y-72.668
X83.0Y-81.2
X83.007Y-83.076
X83.058Y-18.86
X83.058Y-22.86
X83.058Y-78.232
X83.312Y-49.021
X83.4Y-87.899
X83.591Y-74.879
X83.6Y-84.0
X83.693Y-46.736
X83.82Y-76.962
X84.058Y-13.86
X84.058Y-17.86
X84.074Y-42.418
X84.328Y-45.847
X84.45Y-54.996
X84.501Y-47.411
X84.634Y-54.147
X84.745Y-49.122
X84.836Y-41.402
X84.905Y-52.569
X84.916Y-27.068
X84.916Y-29.068
X84.916Y-31.068
X84.916Y-33.068
X84.916Y-35.068
X84.916Y-37.068
X85.344Y-81.534
X85.659Y-52.052
X86.0Y-77.216
X86.19Y-41.232
X86.233Y-44.231
X86.233Y-49.022
X86.36Y-64.516
X86.614Y-23.368
X86.614Y-66.802
X86.614Y-68.622
X86.639Y-62.814
X86.734Y-51.772
X86.741Y-44.958
X86.741Y-45.847
X86.825Y-40.597
X86.868Y-46.972
X86.868Y-57.404
X86.916Y-29.068
X86.916Y-31.068
X86.916Y-33.068
X86.916Y-35.068
X86.916Y-37.068
X86.97Y-58.776
X87.122Y-71.882
X87.63Y-50.274
X87.884Y-13.716
X87.884Y-52.07
X87.916Y-28.068
X87.916Y-34.068
X88.134Y-55.172
X88.138Y-56.134
X88.392Y-38.354
X88.392Y-49.512
X88.484Y-43.67
X88.5Y-81.546
X88.738Y-46.21
X88.916Y-29.068
X88.916Y-31.068
X88.916Y-37.068
X89.408Y-72.136
X89.662Y-23.368
X89.916Y-32.068
X89.916Y-36.068
X90.17Y-42.418
X90.17Y-45.466
X90.17Y-48.514
X90.17Y-52.07
X90.332Y-58.524
X90.424Y-41.402
X90.534Y-55.272
X90.916Y-27.068
X90.916Y-31.068
X91.0Y-68.556
X91.0Y-77.216
X91.44Y-84.328
T2
X56.355Y-63.699
X56.355Y-64.999
X57.655Y-63.699
X57.655Y-64.999
X58.955Y-63.699
X58.955Y-64.999
X60.255Y-63.699
X60.255Y-64.999
T3
X24.778Y-35.091
X25.019Y-39.37
X28.778Y-34.925
X28.778Y-39.091
X34.3Y-35.375
X38.3Y-35.375
X38.3Y-39.375
X48.26Y-90.695
X52.8Y-68.0
X65.278Y-80.518
X75.2Y-70.8
X81.407Y-44.728
X87.122Y-39.37
T5
X42.0Y-34.4
X42.0Y-38.9
X51.65Y-57.565
X53.721Y-61.468
X54.4Y-34.2
X54.4Y-39.2
X60.15Y-52.299
X63.4Y-51.549
T6
X45.11Y-19.72
X45.11Y-24.72
X48.61Y-19.72
X48.61Y-24.72
X57.6Y-19.8
X57.6Y-24.8
X61.1Y-19.8
X61.1Y-24.8
X68.205Y-79.299
X68.205Y-84.299
X71.705Y-79.299
X71.705Y-84.299
T7
X18.29Y-25.96
X18.29Y-37.29
X25.9Y-18.8
X70.0Y-18.8
T8
X15.75Y-23.42
X15.75Y-28.5
X15.75Y-34.75
X15.75Y-39.83
X20.83Y-23.42
X20.83Y-28.5
X20.83Y-34.75
X20.83Y-39.83
X23.36Y-16.26
X23.36Y-21.34
X28.44Y-16.26
X28.44Y-21.34
X67.46Y-16.26
X67.46Y-21.34
X72.54Y-16.26
X72.54Y-21.34
T9
X17.5Y-17.5
X17.5Y-87.0
X88.5Y-17.5
X88.5Y-87.0
T4
X24.33Y-84.437G85X24.33Y-85.337
G05
X24.33Y-88.797G85X24.33Y-89.397
G05
X32.97Y-84.436G85X32.97Y-85.337
G05
X32.97Y-88.797G85X32.97Y-89.397
G05
M30
