G04 #@! TF.GenerationSoftware,KiCad,Pcbnew,10.0.6*
G04 #@! TF.CreationDate,2026-09-24T17:51:24+10:00*
G04 #@! TF.ProjectId,telemetry,74656c65-6d65-4747-9279-2e6b69636164,rev?*
G04 #@! TF.SameCoordinates,Original*
G04 #@! TF.FileFunction,Soldermask,Bot*
G04 #@! TF.FilePolarity,Negative*
%FSLAX46Y46*%
G04 Gerber Fmt 4.6, Leading zero omitted, Abs format (unit mm)*
G04 Created by KiCad (PCBNEW 10.0.6) date 2026-09-24 17:51:24*
%MOMM*%
%LPD*%
G01*
G04 APERTURE LIST*
%ADD10C,2.000000*%
%ADD11C,2.374900*%
%ADD12C,0.990600*%
%ADD13C,1.900000*%
%ADD14C,2.529000*%
%ADD15C,2.679000*%
%ADD16C,6.400000*%
%ADD17C,0.650000*%
%ADD18O,1.100000X2.000000*%
%ADD19O,1.200000X1.800000*%
G04 APERTURE END LIST*
D10*
X63400000Y-51549001D03*
X42000000Y-34400000D03*
D11*
X15113000Y-79756000D03*
D12*
X17653000Y-79756000D03*
D11*
X20193000Y-79756000D03*
X15113000Y-76581000D03*
X20193000Y-76581000D03*
D12*
X16637000Y-74676000D03*
X18669000Y-74676000D03*
D13*
X48610000Y-24719801D03*
X48610000Y-19719801D03*
X45110000Y-24719801D03*
X45110000Y-19719801D03*
D10*
X54400000Y-39200000D03*
X53721000Y-61468000D03*
D14*
X25900000Y-18800000D03*
D15*
X28440000Y-21340000D03*
X23360000Y-21340000D03*
X28440000Y-16260000D03*
X23360000Y-16260000D03*
D14*
X18290000Y-37290000D03*
D15*
X15750000Y-34750000D03*
X20830000Y-34750000D03*
X15750000Y-39830000D03*
X20830000Y-39830000D03*
D10*
X42000000Y-38900000D03*
X54400000Y-34200000D03*
D16*
X88500000Y-87000000D03*
D14*
X18290000Y-25960000D03*
D15*
X20830000Y-28500000D03*
X15750000Y-28500000D03*
X20830000Y-23420000D03*
X15750000Y-23420000D03*
D16*
X88500000Y-17500000D03*
D14*
X70000000Y-18800000D03*
D15*
X72540000Y-21340000D03*
X67460000Y-21340000D03*
X72540000Y-16260000D03*
X67460000Y-16260000D03*
D17*
X25760000Y-85416501D03*
X31540000Y-85416501D03*
D18*
X24330000Y-84886501D03*
D19*
X24330000Y-89096501D03*
D18*
X32970000Y-84886501D03*
D19*
X32970000Y-89096501D03*
D16*
X17500000Y-87000000D03*
D13*
X68204900Y-79299001D03*
X68204900Y-84299001D03*
X71704900Y-79299001D03*
X71704900Y-84299001D03*
D10*
X51650000Y-57564569D03*
D16*
X17500000Y-17500000D03*
D13*
X61100000Y-24800000D03*
X61100000Y-19800000D03*
X57600000Y-24800000D03*
X57600000Y-19800000D03*
D10*
X60150000Y-52299001D03*
M02*
