G04 #@! TF.GenerationSoftware,KiCad,Pcbnew,10.0.6*
G04 #@! TF.CreationDate,2026-09-28T18:03:26+10:00*
G04 #@! TF.ProjectId,telemetry,74656c65-6d65-4747-9279-2e6b69636164,rev?*
G04 #@! TF.SameCoordinates,Original*
G04 #@! TF.FileFunction,Soldermask,Bot*
G04 #@! TF.FilePolarity,Negative*
%FSLAX46Y46*%
G04 Gerber Fmt 4.6, Leading zero omitted, Abs format (unit mm)*
G04 Created by KiCad (PCBNEW 10.0.6) date 2026-09-28 18:03:26*
%MOMM*%
%LPD*%
G01*
G04 APERTURE LIST*
G04 Aperture macros list*
%AMRoundRect*
0 Rectangle with rounded corners*
0 $1 Rounding radius*
0 $2 $3 $4 $5 $6 $7 $8 $9 X,Y pos of 4 corners*
0 Add a 4 corners polygon primitive as box body*
4,1,4,$2,$3,$4,$5,$6,$7,$8,$9,$2,$3,0*
0 Add four circle primitives for the rounded corners*
1,1,$1+$1,$2,$3*
1,1,$1+$1,$4,$5*
1,1,$1+$1,$6,$7*
1,1,$1+$1,$8,$9*
0 Add four rect primitives between the rounded corners*
20,1,$1+$1,$2,$3,$4,$5,0*
20,1,$1+$1,$4,$5,$6,$7,0*
20,1,$1+$1,$6,$7,$8,$9,0*
20,1,$1+$1,$8,$9,$2,$3,0*%
G04 Aperture macros list end*
%ADD10C,2.000000*%
%ADD11C,2.374900*%
%ADD12C,0.990600*%
%ADD13C,1.900000*%
%ADD14C,2.529000*%
%ADD15C,2.679000*%
%ADD16C,6.400000*%
%ADD17C,0.650000*%
%ADD18O,1.100000X2.000000*%
%ADD19O,1.200000X1.800000*%
%ADD20R,1.700000X1.700000*%
%ADD21C,1.700000*%
%ADD22RoundRect,0.160000X-0.160000X0.197500X-0.160000X-0.197500X0.160000X-0.197500X0.160000X0.197500X0*%
%ADD23R,0.850000X1.100000*%
%ADD24R,0.750000X1.100000*%
%ADD25R,1.200000X1.000000*%
%ADD26R,1.550000X1.350000*%
%ADD27R,1.900000X1.350000*%
%ADD28R,1.170000X1.800000*%
%ADD29RoundRect,0.160000X-0.197500X-0.160000X0.197500X-0.160000X0.197500X0.160000X-0.197500X0.160000X0*%
%ADD30RoundRect,0.155000X0.155000X-0.212500X0.155000X0.212500X-0.155000X0.212500X-0.155000X-0.212500X0*%
G04 APERTURE END LIST*
D10*
X63400000Y-51549001D03*
X42000000Y-34400000D03*
D11*
X15113000Y-79756000D03*
D12*
X17653000Y-79756000D03*
D11*
X20193000Y-79756000D03*
X15113000Y-76581000D03*
X20193000Y-76581000D03*
D12*
X16637000Y-74676000D03*
X18669000Y-74676000D03*
D13*
X48610000Y-24719801D03*
X48610000Y-19719801D03*
X45110000Y-24719801D03*
X45110000Y-19719801D03*
D10*
X54400000Y-39200000D03*
X53721000Y-61468000D03*
D14*
X25900000Y-18800000D03*
D15*
X28440000Y-21340000D03*
X23360000Y-21340000D03*
X28440000Y-16260000D03*
X23360000Y-16260000D03*
D14*
X18290000Y-37290000D03*
D15*
X15750000Y-34750000D03*
X20830000Y-34750000D03*
X15750000Y-39830000D03*
X20830000Y-39830000D03*
D10*
X42000000Y-38900000D03*
X54400000Y-34200000D03*
D16*
X88500000Y-87000000D03*
D14*
X18290000Y-25960000D03*
D15*
X20830000Y-28500000D03*
X15750000Y-28500000D03*
X20830000Y-23420000D03*
X15750000Y-23420000D03*
D16*
X88500000Y-17500000D03*
D14*
X70000000Y-18800000D03*
D15*
X72540000Y-21340000D03*
X67460000Y-21340000D03*
X72540000Y-16260000D03*
X67460000Y-16260000D03*
D17*
X25760000Y-85416501D03*
X31540000Y-85416501D03*
D18*
X24330000Y-84886501D03*
D19*
X24330000Y-89096501D03*
D18*
X32970000Y-84886501D03*
D19*
X32970000Y-89096501D03*
D16*
X17500000Y-87000000D03*
D13*
X68204900Y-79299001D03*
X68204900Y-84299001D03*
X71704900Y-79299001D03*
X71704900Y-84299001D03*
D10*
X51650000Y-57564569D03*
D16*
X17500000Y-17500000D03*
D13*
X61100000Y-24800000D03*
X61100000Y-19800000D03*
X57600000Y-24800000D03*
X57600000Y-19800000D03*
D10*
X60150000Y-52299001D03*
D20*
X15130000Y-65930000D03*
D21*
X15130000Y-68470000D03*
X15130000Y-71010000D03*
X15130000Y-73550000D03*
D22*
X61214000Y-76491500D03*
X61214000Y-77686500D03*
X58166000Y-76491500D03*
X58166000Y-77686500D03*
X53086000Y-76491500D03*
X53086000Y-77686500D03*
X55626000Y-76491500D03*
X55626000Y-77686500D03*
D23*
X52354000Y-90984500D03*
X53454000Y-90984500D03*
X54554000Y-90984500D03*
X55654000Y-90984500D03*
X56754000Y-90984500D03*
X57854000Y-90984500D03*
X58954000Y-90984500D03*
D24*
X60004000Y-90984500D03*
D25*
X49719000Y-84834500D03*
X49719000Y-81134500D03*
D26*
X49894000Y-90859500D03*
D27*
X53219000Y-80159500D03*
X59189000Y-80159500D03*
D28*
X61214000Y-90634500D03*
D22*
X59944000Y-76491500D03*
X59944000Y-77686500D03*
D29*
X46519500Y-84963000D03*
X47714500Y-84963000D03*
D22*
X54356000Y-76491500D03*
X54356000Y-77686500D03*
D30*
X56896000Y-77656500D03*
X56896000Y-76521500D03*
M02*
