G04 #@! TF.GenerationSoftware,KiCad,Pcbnew,10.0.6*
G04 #@! TF.CreationDate,2026-09-24T17:51:24+10:00*
G04 #@! TF.ProjectId,telemetry,74656c65-6d65-4747-9279-2e6b69636164,rev?*
G04 #@! TF.SameCoordinates,Original*
G04 #@! TF.FileFunction,Soldermask,Top*
G04 #@! TF.FilePolarity,Negative*
%FSLAX46Y46*%
G04 Gerber Fmt 4.6, Leading zero omitted, Abs format (unit mm)*
G04 Created by KiCad (PCBNEW 10.0.6) date 2026-09-24 17:51:24*
%MOMM*%
%LPD*%
G01*
G04 APERTURE LIST*
G04 Aperture macros list*
%AMRoundRect*
0 Rectangle with rounded corners*
0 $1 Rounding radius*
0 $2 $3 $4 $5 $6 $7 $8 $9 X,Y pos of 4 corners*
0 Add a 4 corners polygon primitive as box body*
4,1,4,$2,$3,$4,$5,$6,$7,$8,$9,$2,$3,0*
0 Add four circle primitives for the rounded corners*
1,1,$1+$1,$2,$3*
1,1,$1+$1,$4,$5*
1,1,$1+$1,$6,$7*
1,1,$1+$1,$8,$9*
0 Add four rect primitives between the rounded corners*
20,1,$1+$1,$2,$3,$4,$5,0*
20,1,$1+$1,$4,$5,$6,$7,0*
20,1,$1+$1,$6,$7,$8,$9,0*
20,1,$1+$1,$8,$9,$2,$3,0*%
G04 Aperture macros list end*
%ADD10C,2.000000*%
%ADD11RoundRect,0.155000X-0.212500X-0.155000X0.212500X-0.155000X0.212500X0.155000X-0.212500X0.155000X0*%
%ADD12RoundRect,0.155000X-0.155000X0.212500X-0.155000X-0.212500X0.155000X-0.212500X0.155000X0.212500X0*%
%ADD13R,5.000000X3.100000*%
%ADD14R,1.000000X0.500000*%
%ADD15RoundRect,0.155000X0.155000X-0.212500X0.155000X0.212500X-0.155000X0.212500X-0.155000X-0.212500X0*%
%ADD16R,1.050000X0.400000*%
%ADD17O,1.050000X0.400000*%
%ADD18O,0.200000X0.600000*%
%ADD19RoundRect,0.160000X-0.160000X0.197500X-0.160000X-0.197500X0.160000X-0.197500X0.160000X0.197500X0*%
%ADD20RoundRect,0.155000X0.212500X0.155000X-0.212500X0.155000X-0.212500X-0.155000X0.212500X-0.155000X0*%
%ADD21RoundRect,0.160000X-0.197500X-0.160000X0.197500X-0.160000X0.197500X0.160000X-0.197500X0.160000X0*%
%ADD22R,0.228600X1.104900*%
%ADD23R,1.104900X0.228600*%
%ADD24RoundRect,0.250000X-0.250000X-0.400000X0.250000X-0.400000X0.250000X0.400000X-0.250000X0.400000X0*%
%ADD25C,2.374900*%
%ADD26C,0.990600*%
%ADD27C,0.787400*%
%ADD28C,1.900000*%
%ADD29RoundRect,0.160000X0.197500X0.160000X-0.197500X0.160000X-0.197500X-0.160000X0.197500X-0.160000X0*%
%ADD30RoundRect,0.087500X-0.087500X-0.237500X0.087500X-0.237500X0.087500X0.237500X-0.087500X0.237500X0*%
%ADD31RoundRect,0.150000X0.150000X-0.825000X0.150000X0.825000X-0.150000X0.825000X-0.150000X-0.825000X0*%
%ADD32RoundRect,0.150000X0.587500X0.150000X-0.587500X0.150000X-0.587500X-0.150000X0.587500X-0.150000X0*%
%ADD33RoundRect,0.160000X0.160000X-0.197500X0.160000X0.197500X-0.160000X0.197500X-0.160000X-0.197500X0*%
%ADD34RoundRect,0.102000X-0.700000X0.600000X-0.700000X-0.600000X0.700000X-0.600000X0.700000X0.600000X0*%
%ADD35C,2.529000*%
%ADD36C,2.679000*%
%ADD37RoundRect,0.250000X-1.000000X-0.900000X1.000000X-0.900000X1.000000X0.900000X-1.000000X0.900000X0*%
%ADD38RoundRect,0.112500X0.637500X0.112500X-0.637500X0.112500X-0.637500X-0.112500X0.637500X-0.112500X0*%
%ADD39RoundRect,0.250000X1.500000X0.550000X-1.500000X0.550000X-1.500000X-0.550000X1.500000X-0.550000X0*%
%ADD40C,6.400000*%
%ADD41R,1.200000X1.200000*%
%ADD42RoundRect,0.150000X0.150000X-0.512500X0.150000X0.512500X-0.150000X0.512500X-0.150000X-0.512500X0*%
%ADD43RoundRect,0.140000X-0.140000X-0.170000X0.140000X-0.170000X0.140000X0.170000X-0.140000X0.170000X0*%
%ADD44C,0.650000*%
%ADD45R,0.550000X1.100000*%
%ADD46R,0.300000X1.100000*%
%ADD47O,1.100000X2.000000*%
%ADD48O,1.200000X1.800000*%
%ADD49RoundRect,0.250000X2.050000X0.300000X-2.050000X0.300000X-2.050000X-0.300000X2.050000X-0.300000X0*%
%ADD50RoundRect,0.250002X4.449998X5.149998X-4.449998X5.149998X-4.449998X-5.149998X4.449998X-5.149998X0*%
%ADD51RoundRect,0.150000X0.150000X-0.587500X0.150000X0.587500X-0.150000X0.587500X-0.150000X-0.587500X0*%
%ADD52R,0.850000X1.100000*%
%ADD53R,0.750000X1.100000*%
%ADD54R,1.200000X1.000000*%
%ADD55R,1.550000X1.350000*%
%ADD56R,1.900000X1.350000*%
%ADD57R,1.170000X1.800000*%
%ADD58RoundRect,0.250000X-0.400000X-1.450000X0.400000X-1.450000X0.400000X1.450000X-0.400000X1.450000X0*%
%ADD59R,0.812800X2.489200*%
%ADD60RoundRect,0.100000X0.637500X0.100000X-0.637500X0.100000X-0.637500X-0.100000X0.637500X-0.100000X0*%
%ADD61RoundRect,0.225000X0.375000X-0.225000X0.375000X0.225000X-0.375000X0.225000X-0.375000X-0.225000X0*%
%ADD62R,3.100000X2.600000*%
%ADD63R,0.600000X1.550000*%
%ADD64R,1.230000X1.860000*%
%ADD65R,0.431800X0.254000*%
%ADD66R,0.254000X0.431800*%
G04 APERTURE END LIST*
D10*
X63400000Y-51549001D03*
D11*
X54332500Y-58049001D03*
X55467500Y-58049001D03*
D12*
X86106000Y-38294500D03*
X86106000Y-39429500D03*
D13*
X68580000Y-69599001D03*
X68580000Y-58499001D03*
D14*
X89374000Y-43523999D03*
X91474000Y-43523999D03*
X89374000Y-44323999D03*
X91474000Y-44323999D03*
D15*
X47529800Y-46115000D03*
X47529800Y-44980000D03*
D16*
X78230000Y-70699001D03*
D17*
X78230000Y-71399001D03*
D18*
X78150000Y-72199001D03*
X78650000Y-72199001D03*
X79150000Y-72199001D03*
X79650000Y-72199001D03*
D17*
X79580000Y-71399001D03*
X79580000Y-70699001D03*
D18*
X79650000Y-69899001D03*
X79150000Y-69899001D03*
X78650000Y-69899001D03*
X78150000Y-69899001D03*
D19*
X54356000Y-76529000D03*
X54356000Y-77724000D03*
D11*
X37582500Y-65549001D03*
X38717500Y-65549001D03*
D20*
X21217500Y-70549001D03*
X20082500Y-70549001D03*
X80577500Y-44450000D03*
X79442500Y-44450000D03*
D21*
X78142500Y-25654000D03*
X79337500Y-25654000D03*
D11*
X72838500Y-24892000D03*
X73973500Y-24892000D03*
D20*
X23680000Y-61799001D03*
X22545000Y-61799001D03*
D10*
X42000000Y-34400000D03*
D19*
X53086000Y-76529000D03*
X53086000Y-77724000D03*
D22*
X33150000Y-63191951D03*
X32650001Y-63191951D03*
X32150000Y-63191951D03*
X31650001Y-63191951D03*
X31149999Y-63191951D03*
X30650000Y-63191951D03*
X30150001Y-63191951D03*
X29650000Y-63191951D03*
X29150000Y-63191951D03*
X28649999Y-63191951D03*
X28150000Y-63191951D03*
X27650001Y-63191951D03*
X27149999Y-63191951D03*
X26650000Y-63191951D03*
X26149999Y-63191951D03*
X25650000Y-63191951D03*
D23*
X23792950Y-65049001D03*
X23792950Y-65549000D03*
X23792950Y-66049001D03*
X23792950Y-66549000D03*
X23792950Y-67049002D03*
X23792950Y-67549001D03*
X23792950Y-68049000D03*
X23792950Y-68549001D03*
X23792950Y-69049001D03*
X23792950Y-69549002D03*
X23792950Y-70049001D03*
X23792950Y-70549000D03*
X23792950Y-71049002D03*
X23792950Y-71549001D03*
X23792950Y-72049002D03*
X23792950Y-72549001D03*
D22*
X25650000Y-74406051D03*
X26149999Y-74406051D03*
X26650000Y-74406051D03*
X27149999Y-74406051D03*
X27650001Y-74406051D03*
X28150000Y-74406051D03*
X28649999Y-74406051D03*
X29150000Y-74406051D03*
X29650000Y-74406051D03*
X30150001Y-74406051D03*
X30650000Y-74406051D03*
X31149999Y-74406051D03*
X31650001Y-74406051D03*
X32150000Y-74406051D03*
X32650001Y-74406051D03*
X33150000Y-74406051D03*
D23*
X35007050Y-72549001D03*
X35007050Y-72049002D03*
X35007050Y-71549001D03*
X35007050Y-71049002D03*
X35007050Y-70549000D03*
X35007050Y-70049001D03*
X35007050Y-69549002D03*
X35007050Y-69049001D03*
X35007050Y-68549001D03*
X35007050Y-68049000D03*
X35007050Y-67549001D03*
X35007050Y-67049002D03*
X35007050Y-66549000D03*
X35007050Y-66049001D03*
X35007050Y-65549000D03*
X35007050Y-65049001D03*
D11*
X20432500Y-46000000D03*
X21567500Y-46000000D03*
D15*
X60009800Y-46317500D03*
X60009800Y-45182500D03*
D24*
X43900000Y-82749001D03*
X45650000Y-78849001D03*
X47400000Y-82749001D03*
D25*
X15113000Y-79756000D03*
D26*
X17653000Y-79756000D03*
D25*
X20193000Y-79756000D03*
X15113000Y-76581000D03*
X20193000Y-76581000D03*
D26*
X16637000Y-74676000D03*
X18669000Y-74676000D03*
D27*
X18288000Y-78486000D03*
X17018000Y-78486000D03*
X18288000Y-77216000D03*
X17018000Y-77216000D03*
X18288000Y-75946000D03*
X17018000Y-75946000D03*
D15*
X37814984Y-47581041D03*
X37814984Y-46446041D03*
D28*
X48610000Y-24719801D03*
X48610000Y-19719801D03*
X45110000Y-24719801D03*
X45110000Y-19719801D03*
D10*
X54400000Y-39200000D03*
D19*
X54150000Y-65451501D03*
X54150000Y-66646501D03*
D29*
X23711500Y-80772000D03*
X22516500Y-80772000D03*
D30*
X26753000Y-25654000D03*
X27603000Y-25654000D03*
D10*
X53721000Y-61468000D03*
D31*
X57489800Y-42200000D03*
X58759800Y-42200000D03*
X60029800Y-42200000D03*
X61299800Y-42200000D03*
X61299800Y-37250000D03*
X60029800Y-37250000D03*
X58759800Y-37250000D03*
X57489800Y-37250000D03*
D19*
X78650000Y-74951501D03*
X78650000Y-76146501D03*
D11*
X89348500Y-56134000D03*
X90483500Y-56134000D03*
D20*
X78291500Y-68834000D03*
X77156500Y-68834000D03*
D14*
X89374000Y-46825999D03*
X91474000Y-46825999D03*
X89374000Y-47625999D03*
X91474000Y-47625999D03*
D32*
X34647500Y-22500000D03*
X34647500Y-20600000D03*
X32772500Y-21550000D03*
D33*
X79900000Y-76146501D03*
X79900000Y-74951501D03*
D19*
X31360000Y-26952500D03*
X31360000Y-28147500D03*
D33*
X45029800Y-46145000D03*
X45029800Y-44950000D03*
D12*
X85090000Y-38294500D03*
X85090000Y-39429500D03*
D19*
X25908000Y-27850500D03*
X25908000Y-29045500D03*
X48900000Y-84951501D03*
X48900000Y-86146501D03*
D20*
X19000000Y-58699001D03*
X17865000Y-58699001D03*
D19*
X28702000Y-25818500D03*
X28702000Y-27013500D03*
D34*
X32000000Y-59249001D03*
X29800000Y-59249001D03*
X29800000Y-60849001D03*
X32000000Y-60849001D03*
D21*
X35762500Y-27800000D03*
X36957500Y-27800000D03*
D35*
X25900000Y-18800000D03*
D36*
X28440000Y-21340000D03*
X23360000Y-21340000D03*
X28440000Y-16260000D03*
X23360000Y-16260000D03*
D20*
X21217500Y-64549001D03*
X20082500Y-64549001D03*
D29*
X38495000Y-22500000D03*
X37300000Y-22500000D03*
D19*
X61214000Y-76529000D03*
X61214000Y-77724000D03*
D29*
X20663500Y-83058000D03*
X19468500Y-83058000D03*
D35*
X18290000Y-37290000D03*
D36*
X15750000Y-34750000D03*
X20830000Y-34750000D03*
X15750000Y-39830000D03*
X20830000Y-39830000D03*
D33*
X77400000Y-76146501D03*
X77400000Y-74951501D03*
X76150000Y-76146501D03*
X76150000Y-74951501D03*
D11*
X17865000Y-59799001D03*
X19000000Y-59799001D03*
D15*
X67150000Y-54966501D03*
X67150000Y-53831501D03*
D37*
X76250000Y-89299001D03*
X80550000Y-89299001D03*
D14*
X89408000Y-50019999D03*
X91508000Y-50019999D03*
X89408000Y-50819999D03*
X91508000Y-50819999D03*
D10*
X42000000Y-38900000D03*
D38*
X73004000Y-50931000D03*
X73004000Y-50281000D03*
X73004000Y-49631000D03*
X73004000Y-48981000D03*
X73004000Y-48331000D03*
X73004000Y-47681000D03*
X73004000Y-47031000D03*
X73004000Y-46381000D03*
X73004000Y-45731000D03*
X73004000Y-45081000D03*
X67204000Y-45081000D03*
X67204000Y-45731000D03*
X67204000Y-46381000D03*
X67204000Y-47031000D03*
X67204000Y-47681000D03*
X67204000Y-48331000D03*
X67204000Y-48981000D03*
X67204000Y-49631000D03*
X67204000Y-50281000D03*
X67204000Y-50931000D03*
D10*
X54400000Y-34200000D03*
D39*
X51061000Y-63989000D03*
X45661000Y-63989000D03*
D40*
X88500000Y-87000000D03*
D12*
X70104000Y-23562500D03*
X70104000Y-24697500D03*
D41*
X68000000Y-73400000D03*
X65200000Y-73400000D03*
D42*
X27700000Y-81186501D03*
X28650000Y-81186501D03*
X29600000Y-81186501D03*
X29600000Y-78911501D03*
X28650000Y-78911501D03*
X27700000Y-78911501D03*
D24*
X43900000Y-75499001D03*
X45650000Y-71599001D03*
X47400000Y-75499001D03*
D43*
X68128000Y-23622000D03*
X69088000Y-23622000D03*
D11*
X56963500Y-59817000D03*
X58098500Y-59817000D03*
D20*
X21217500Y-72549001D03*
X20082500Y-72549001D03*
D21*
X76454000Y-26924000D03*
X77649000Y-26924000D03*
D11*
X72838500Y-23622000D03*
X73973500Y-23622000D03*
D15*
X36610000Y-47617500D03*
X36610000Y-46482500D03*
D14*
X89434000Y-53175999D03*
X91534000Y-53175999D03*
X89434000Y-53975999D03*
X91534000Y-53975999D03*
D12*
X33150000Y-76981501D03*
X33150000Y-78116501D03*
D20*
X88959500Y-69850000D03*
X87824500Y-69850000D03*
D12*
X22900000Y-75231501D03*
X22900000Y-76366501D03*
D35*
X18290000Y-25960000D03*
D36*
X20830000Y-28500000D03*
X15750000Y-28500000D03*
X20830000Y-23420000D03*
X15750000Y-23420000D03*
D14*
X89434000Y-40221999D03*
X91534000Y-40221999D03*
X89434000Y-41021999D03*
X91534000Y-41021999D03*
D12*
X25908000Y-25594500D03*
X25908000Y-26729500D03*
D40*
X88500000Y-17500000D03*
D11*
X73600500Y-56919999D03*
X74735500Y-56919999D03*
D35*
X70000000Y-18800000D03*
D36*
X72540000Y-21340000D03*
X67460000Y-21340000D03*
X72540000Y-16260000D03*
X67460000Y-16260000D03*
D19*
X81150000Y-74951501D03*
X81150000Y-76146501D03*
D11*
X35332500Y-63599001D03*
X36467500Y-63599001D03*
D19*
X49029800Y-32852500D03*
X49029800Y-34047500D03*
D20*
X68893500Y-25654000D03*
X67758500Y-25654000D03*
X45967500Y-85049000D03*
X44832500Y-85049000D03*
D44*
X25760000Y-85416501D03*
X31540000Y-85416501D03*
D45*
X25450000Y-84336501D03*
X31850000Y-84336501D03*
X26250000Y-84336501D03*
X31050000Y-84336501D03*
D46*
X27400000Y-84336501D03*
X28400000Y-84336501D03*
X28900000Y-84336501D03*
X29900000Y-84336501D03*
X30400000Y-84336501D03*
X29400000Y-84336501D03*
X27900000Y-84336501D03*
X26900000Y-84336501D03*
D47*
X24330000Y-84886501D03*
D48*
X24330000Y-89096501D03*
D47*
X32970000Y-84886501D03*
D48*
X32970000Y-89096501D03*
D21*
X16352500Y-53949001D03*
X17547500Y-53949001D03*
X79502000Y-68834000D03*
X80697000Y-68834000D03*
X73758500Y-54346000D03*
X74953500Y-54346000D03*
D49*
X89595000Y-65043000D03*
X89595000Y-62503000D03*
D50*
X80445000Y-62503000D03*
D49*
X89595000Y-59963000D03*
D51*
X81993750Y-81642751D03*
X83893750Y-81642751D03*
X82943750Y-79767751D03*
D52*
X59921000Y-90984500D03*
X58821000Y-90984500D03*
X57721000Y-90984500D03*
X56621000Y-90984500D03*
X55521000Y-90984500D03*
X54421000Y-90984500D03*
X53321000Y-90984500D03*
D53*
X52271000Y-90984500D03*
D54*
X62556000Y-84834500D03*
X62556000Y-81134500D03*
D55*
X62381000Y-90859500D03*
D56*
X59056000Y-80159500D03*
X53086000Y-80159500D03*
D57*
X51061000Y-90634500D03*
D20*
X26567500Y-59649001D03*
X25432500Y-59649001D03*
X23567500Y-51500000D03*
X22432500Y-51500000D03*
D21*
X32762500Y-27800000D03*
X33957500Y-27800000D03*
D11*
X28134500Y-24638000D03*
X29269500Y-24638000D03*
D19*
X59957558Y-76529000D03*
X59957558Y-77724000D03*
D40*
X17500000Y-87000000D03*
D58*
X75718750Y-83692751D03*
X80168750Y-83692751D03*
D33*
X82400000Y-76146501D03*
X82400000Y-74951501D03*
X44779800Y-34047500D03*
X44779800Y-32852500D03*
D11*
X28134500Y-23622000D03*
X29269500Y-23622000D03*
D21*
X82096250Y-84955251D03*
X83291250Y-84955251D03*
D19*
X85852000Y-45757500D03*
X85852000Y-46952500D03*
D28*
X68204900Y-79299001D03*
X68204900Y-84299001D03*
X71704900Y-79299001D03*
X71704900Y-84299001D03*
D15*
X56900000Y-77694000D03*
X56900000Y-76559000D03*
D29*
X38900000Y-85131500D03*
X37705000Y-85131500D03*
D21*
X73758500Y-53271000D03*
X74953500Y-53271000D03*
D11*
X65980500Y-52070000D03*
X67115500Y-52070000D03*
D59*
X38900002Y-31300000D03*
X37800001Y-31300000D03*
X36700001Y-31300000D03*
X35600001Y-31300000D03*
X34500000Y-31300000D03*
X33400000Y-31300000D03*
X32300002Y-31300000D03*
X29300002Y-31300000D03*
X28200001Y-31300000D03*
X27100001Y-31300000D03*
X26000001Y-31300000D03*
X24900000Y-31300000D03*
X24900000Y-43500000D03*
X26000001Y-43500000D03*
X27100001Y-43500000D03*
X28200001Y-43500000D03*
X29300002Y-43500000D03*
X32300002Y-43500000D03*
X33400000Y-43500000D03*
X34500000Y-43500000D03*
X35600001Y-43500000D03*
X36700001Y-43500000D03*
X37800001Y-43500000D03*
X38900002Y-43500000D03*
D11*
X54332500Y-55799001D03*
X55467500Y-55799001D03*
D15*
X63150000Y-54966501D03*
X63150000Y-53831501D03*
D29*
X76247500Y-73549001D03*
X75052500Y-73549001D03*
D60*
X29500000Y-50450000D03*
X29500000Y-49800000D03*
X29500000Y-49150000D03*
X29500000Y-48500000D03*
X29500000Y-47850000D03*
X29500000Y-47200000D03*
X29500000Y-46550000D03*
X23775000Y-46550000D03*
X23775000Y-47200000D03*
X23775000Y-47850000D03*
X23775000Y-48500000D03*
X23775000Y-49150000D03*
X23775000Y-49800000D03*
X23775000Y-50450000D03*
D12*
X39116000Y-46422500D03*
X39116000Y-47557500D03*
D29*
X86195500Y-55880000D03*
X85000500Y-55880000D03*
D21*
X37300000Y-20250000D03*
X38495000Y-20250000D03*
X82302500Y-73549001D03*
X83497500Y-73549001D03*
D20*
X60717500Y-56799001D03*
X59582500Y-56799001D03*
D33*
X57509800Y-46347500D03*
X57509800Y-45152500D03*
D61*
X83400000Y-89549001D03*
X83400000Y-86249001D03*
D19*
X58166000Y-76529000D03*
X58166000Y-77724000D03*
D20*
X68953000Y-26924000D03*
X67818000Y-26924000D03*
D38*
X83134000Y-55646000D03*
X83134000Y-54996000D03*
X83134000Y-54346000D03*
X83134000Y-53696000D03*
X83134000Y-53046000D03*
X83134000Y-52396000D03*
X83134000Y-51746000D03*
X83134000Y-51096000D03*
X83134000Y-50446000D03*
X83134000Y-49796000D03*
X77334000Y-49796000D03*
X77334000Y-50446000D03*
X77334000Y-51096000D03*
X77334000Y-51746000D03*
X77334000Y-52396000D03*
X77334000Y-53046000D03*
X77334000Y-53696000D03*
X77334000Y-54346000D03*
X77334000Y-54996000D03*
X77334000Y-55646000D03*
D11*
X37582500Y-67000000D03*
X38717500Y-67000000D03*
D19*
X55626000Y-76529000D03*
X55626000Y-77724000D03*
X70104000Y-25818500D03*
X70104000Y-27013500D03*
D10*
X51650000Y-57564569D03*
D20*
X21217500Y-66799001D03*
X20082500Y-66799001D03*
D62*
X58305000Y-64349001D03*
D63*
X60210000Y-61649001D03*
X58940000Y-61649001D03*
X57670000Y-61649001D03*
X56400000Y-61649001D03*
X56400000Y-67049001D03*
X57670000Y-67049001D03*
X58940000Y-67049001D03*
X60210000Y-67049001D03*
D15*
X65150000Y-54966501D03*
X65150000Y-53831501D03*
D21*
X72808500Y-26162000D03*
X74003500Y-26162000D03*
D20*
X24697500Y-29083000D03*
X23562500Y-29083000D03*
D40*
X17500000Y-17500000D03*
D20*
X57272400Y-70111501D03*
X56137400Y-70111501D03*
D11*
X59572500Y-55699001D03*
X60707500Y-55699001D03*
D59*
X83133000Y-30091000D03*
X82032999Y-30091000D03*
X80932999Y-30091000D03*
X79832999Y-30091000D03*
X78732998Y-30091000D03*
X77632998Y-30091000D03*
X76533000Y-30091000D03*
X73533000Y-30091000D03*
X72432999Y-30091000D03*
X71332999Y-30091000D03*
X70232999Y-30091000D03*
X69132998Y-30091000D03*
X69132998Y-42291000D03*
X70232999Y-42291000D03*
X71332999Y-42291000D03*
X72432999Y-42291000D03*
X73533000Y-42291000D03*
X76533000Y-42291000D03*
X77632998Y-42291000D03*
X78732998Y-42291000D03*
X79832999Y-42291000D03*
X80932999Y-42291000D03*
X82032999Y-42291000D03*
X83133000Y-42291000D03*
D31*
X44874800Y-42175000D03*
X46144800Y-42175000D03*
X47414800Y-42175000D03*
X48684800Y-42175000D03*
X48684800Y-37225000D03*
X47414800Y-37225000D03*
X46144800Y-37225000D03*
X44874800Y-37225000D03*
D33*
X57394800Y-34297500D03*
X57394800Y-33102500D03*
D64*
X47580000Y-88549001D03*
X43220000Y-88549001D03*
D43*
X24130000Y-23876000D03*
X25090000Y-23876000D03*
D28*
X61100000Y-24800000D03*
X61100000Y-19800000D03*
X57600000Y-24800000D03*
X57600000Y-19800000D03*
D65*
X17150000Y-55549001D03*
X17150000Y-56049127D03*
X17150000Y-56549253D03*
X17150000Y-57049379D03*
D66*
X17830974Y-57226290D03*
X18331100Y-57226290D03*
X18831226Y-57226290D03*
D65*
X19512200Y-57049379D03*
X19512200Y-56549253D03*
X19512200Y-56049127D03*
X19512200Y-55549001D03*
D66*
X18831226Y-55372090D03*
X18331100Y-55372090D03*
X17830974Y-55372090D03*
D10*
X60150000Y-52299001D03*
D11*
X59332500Y-70111501D03*
X60467500Y-70111501D03*
D64*
X40482500Y-88631501D03*
X36122500Y-88631501D03*
D30*
X70949000Y-23622000D03*
X71799000Y-23622000D03*
D19*
X61144800Y-33102500D03*
X61144800Y-34297500D03*
D21*
X72996500Y-55833668D03*
X74191500Y-55833668D03*
D20*
X28967500Y-56949001D03*
X27832500Y-56949001D03*
D29*
X54052400Y-69111501D03*
X52857400Y-69111501D03*
D20*
X24697500Y-27940000D03*
X23562500Y-27940000D03*
M02*
